<svg width="128" height="128" viewBox="0 0 128 128" fill="none" xmlns="http://www.w3.org/2000/svg">
<rect x="4" y="4" width="120" height="120" rx="34" fill="black"/>
<path fill-rule="evenodd" clip-rule="evenodd" d="M32 42.6667C32 39.8377 44.1152 44.6671 46.1156 42.6667C48.1159 40.6663 39.8377 32 42.6667 32H85.3333C88.1623 32 79.8841 40.6663 81.8844 42.6667C83.8848 44.6671 96 39.8377 96 42.6667V85.3333C96 88.1623 84.6671 83.3329 82.6667 85.3333C80.6663 87.3337 88.1623 96 85.3333 96H42.6667C39.8377 96 47.3361 87.3337 45.3357 85.3333C43.3353 83.3329 32 88.1623 32 85.3333V42.6667ZM82.6667 64C82.666 64.707 82.3847 65.3848 81.8844 65.8844L73.8844 73.8844C73.6403 74.1464 73.3459 74.3566 73.0188 74.5023C72.6917 74.6481 72.3386 74.7265 71.9805 74.7328C71.6225 74.7391 71.2668 74.6732 70.9348 74.5391C70.6027 74.405 70.3011 74.2054 70.0479 73.9521C69.7946 73.6989 69.595 73.3973 69.4609 73.0652C69.3268 72.7332 69.2609 72.3775 69.2672 72.0195C69.2735 71.6614 69.3519 71.3083 69.4977 70.9812C69.6434 70.6541 69.8536 70.3597 70.1156 70.1156L76.2311 64L70.1156 57.8844C69.8536 57.6403 69.6434 57.3459 69.4977 57.0188C69.3519 56.6917 69.2735 56.3386 69.2672 55.9805C69.2609 55.6225 69.3268 55.2668 69.4609 54.9348C69.595 54.6027 69.7946 54.3011 70.0479 54.0479C70.3011 53.7946 70.6027 53.595 70.9348 53.4609C71.2668 53.3268 71.6225 53.2609 71.9805 53.2672C72.3386 53.2735 72.6917 53.3519 73.0188 53.4977C73.3459 53.6434 73.6403 53.8536 73.8844 54.1156L81.8844 62.1156C82.3858 62.6133 82.6667 63.2924 82.6667 64ZM46.1156 62.1156C45.6162 62.6156 45.3357 63.2933 45.3357 64C45.3357 64.7067 45.6162 65.3844 46.1156 65.8844L54.1156 73.8844C54.3597 74.1464 54.6541 74.3566 54.9812 74.5023C55.3083 74.6481 55.6614 74.7265 56.0195 74.7328C56.3775 74.7391 56.7332 74.6732 57.0652 74.5391C57.3973 74.405 57.6989 74.2054 57.9521 73.9521C58.2054 73.6989 58.405 73.3973 58.5391 73.0652C58.6732 72.7332 58.7391 72.3775 58.7328 72.0195C58.7265 71.6614 58.6481 71.3083 58.5023 70.9812C58.3566 70.6541 58.1464 70.3597 57.8844 70.1156L51.7689 64L57.8844 57.8844C58.1464 57.6403 58.3566 57.3459 58.5023 57.0188C58.6481 56.6917 58.7265 56.3386 58.7328 55.9805C58.7391 55.6225 58.6732 55.2668 58.5391 54.9348C58.405 54.6027 58.2054 54.3011 57.9521 54.0479C57.6989 53.7946 57.3973 53.595 57.0652 53.4609C56.7332 53.3268 56.3775 53.2609 56.0195 53.2672C55.6614 53.2735 55.3083 53.3519 54.9812 53.4977C54.6541 53.6434 54.3597 53.8536 54.1156 54.1156L46.1156 62.1156Z" fill="url(#paint0_linear_1517_2)"/>
<rect x="4" y="4" width="120" height="120" rx="34" stroke="url(#paint1_linear_1517_2)" stroke-width="8"/>
<defs>
<linearGradient id="paint0_linear_1517_2" x1="32" y1="32" x2="96" y2="96" gradientUnits="userSpaceOnUse">
<stop stop-color="#C6F8FF"/>
<stop offset="1" stop-color="#595CFF"/>
</linearGradient>
<linearGradient id="paint1_linear_1517_2" x1="0" y1="-1.52588e-05" x2="128" y2="128" gradientUnits="userSpaceOnUse">
<stop stop-color="#C6F8FF"/>
<stop offset="1" stop-color="#595CFF"/>
</linearGradient>
</defs>
</svg>
